<?xml version="1.0" encoding="UTF-8" standalone="no"?>
<!DOCTYPE svg PUBLIC "-//W3C//DTD SVG 1.1//EN" "http://www.w3.org/Graphics/SVG/1.1/DTD/svg11.dtd">
<svg width="100%" height="100%" viewBox="0 0 2351 494" version="1.1" xmlns="http://www.w3.org/2000/svg" xmlns:xlink="http://www.w3.org/1999/xlink" xml:space="preserve" xmlns:serif="http://www.serif.com/" style="fill-rule:evenodd;clip-rule:evenodd;stroke-linejoin:round;stroke-miterlimit:2;">
    <g transform="matrix(1,0,0,1,-10974,-1899)">
        <g id="Excellon_Logo_26" transform="matrix(0.851503,0,0,0.494,1629.605216,960.894)">
            <rect x="10974" y="1899" width="2761" height="1000" style="fill:none;"/>
            <g transform="matrix(1.174394,0,0,2.024291,-2240.724108,-7254.348887)">
                <g transform="matrix(4.166667,0,0,4.209989,12183.762911,4800.357575)">
                    <path d="M0,-12.016C0,-14.946 0.398,-17.357 1.196,-19.248C1.993,-21.139 3.161,-22.631 4.701,-23.726C6.239,-24.819 8.102,-25.57 10.291,-25.979C12.479,-26.386 14.964,-26.59 17.745,-26.59L32.264,-26.59C36.64,-26.59 40.144,-26.33 42.778,-25.813C45.411,-25.292 47.413,-24.44 48.786,-23.252C50.157,-22.066 51.047,-20.508 51.456,-18.58C51.863,-16.652 52.048,-14.259 52.012,-11.405L39.663,-11.405L39.663,-12.517C39.663,-13.963 39.162,-14.946 38.16,-15.465C37.159,-15.984 35.731,-16.245 33.877,-16.245L20.415,-16.245C18.783,-16.245 17.467,-16.058 16.466,-15.687C15.464,-15.317 14.686,-14.779 14.129,-14.074C13.573,-13.37 13.192,-12.526 12.989,-11.543C12.785,-10.56 12.683,-9.438 12.683,-8.178L12.683,-3.839C12.683,-2.393 12.775,-1.15 12.961,-0.113C13.146,0.927 13.498,1.761 14.018,2.391C14.537,3.022 15.26,3.486 16.187,3.782C17.114,4.08 18.301,4.227 19.748,4.227L32.932,4.227C34.303,4.227 35.453,4.171 36.38,4.06C37.307,3.949 38.049,3.699 38.605,3.309C39.162,2.92 39.56,2.364 39.802,1.64C40.042,0.917 40.163,-0.075 40.163,-1.335L52.512,-1.335L52.512,2.447C52.512,4.154 52.318,5.739 51.928,7.204C51.54,8.669 50.806,9.948 49.731,11.041C48.655,12.136 47.153,12.998 45.225,13.629C43.296,14.258 40.775,14.574 37.66,14.574L17.745,14.574C14.964,14.574 12.479,14.37 10.291,13.963C8.102,13.554 6.239,12.803 4.701,11.709C3.161,10.616 1.993,9.132 1.196,7.258C0.398,5.386 0,2.966 0,0L0,-12.016Z" style="fill:rgb(77,85,90);fill-rule:nonzero;"/>
                </g>
                <g transform="matrix(4.166667,0,0,4.166667,11727.647495,4861.751459)">
                    <path d="M0,-41.601L46.282,-41.601L46.262,-31.949L12.756,-31.949L12.756,-25.283L43.784,-25.283L43.784,-16.664L12.756,-16.664L12.756,-9.997L46.254,-9.997L46.254,0L0,0L0,-41.601Z" style="fill:rgb(77,85,90);fill-rule:nonzero;"/>
                </g>
                <g transform="matrix(4.166667,0,0,4.166667,12417.647495,4861.751459)">
                    <path d="M0,-41.601L46.282,-41.601L46.262,-31.949L12.756,-31.949L12.756,-25.283L43.784,-25.283L43.784,-16.664L12.756,-16.664L12.756,-9.997L46.254,-9.997L46.254,0L0,0L0,-41.601Z" style="fill:rgb(77,85,90);fill-rule:nonzero;"/>
                </g>
                <g transform="matrix(4.166667,0,0,4.166667,12628.917078,4861.643126)">
                    <path d="M0,-41.575L12.747,-41.575L12.747,-10.681L41.402,-10.681L41.402,0L0,0L0,-41.575Z" style="fill:rgb(77,85,90);fill-rule:nonzero;"/>
                </g>
                <g transform="matrix(4.166667,0,0,4.166667,12819.917078,4861.643126)">
                    <path d="M0,-41.575L12.747,-41.575L12.747,-10.681L41.402,-10.681L41.402,0L0,0L0,-41.575Z" style="fill:rgb(77,85,90);fill-rule:nonzero;"/>
                </g>
                <g transform="matrix(4.166667,0,0,4.166667,13058.975828,4765.322292)">
                    <path d="M0,4.349C0,5.798 0.092,7.045 0.277,8.084C0.465,9.126 0.816,9.962 1.337,10.594C1.858,11.227 2.583,11.691 3.513,11.989C4.441,12.286 5.633,12.435 7.082,12.435L22.917,12.435C24.368,12.435 25.557,12.286 26.486,11.989C27.415,11.691 28.141,11.227 28.662,10.594C29.182,9.962 29.534,9.126 29.722,8.084C29.907,7.045 30,5.798 30,4.349L30,-0.001C30,-1.263 29.896,-2.388 29.693,-3.374C29.489,-4.359 29.107,-5.204 28.55,-5.911C27.993,-6.618 27.213,-7.157 26.209,-7.529C25.205,-7.9 23.885,-8.087 22.25,-8.087L7.751,-8.087C6.114,-8.087 4.796,-7.9 3.792,-7.529C2.788,-7.157 2.008,-6.618 1.45,-5.911C0.892,-5.204 0.51,-4.359 0.306,-3.374C0.103,-2.388 0,-1.263 0,-0.001L0,4.349ZM-12.715,-3.848C-12.715,-6.785 -12.314,-9.202 -11.516,-11.097C-10.717,-12.993 -9.545,-14.489 -8.002,-15.587C-6.461,-16.682 -4.592,-17.434 -2.397,-17.844C-0.206,-18.253 2.285,-18.458 5.074,-18.458L24.926,-18.458C27.714,-18.458 30.203,-18.253 32.398,-17.844C34.591,-17.434 36.46,-16.682 38.003,-15.587C39.544,-14.489 40.716,-12.993 41.515,-11.097C42.314,-9.202 42.715,-6.785 42.715,-3.848L42.715,8.197C42.715,11.171 42.314,13.596 41.515,15.473C40.716,17.351 39.544,18.838 38.003,19.934C36.46,21.032 34.591,21.785 32.398,22.193C30.203,22.601 27.714,22.807 24.926,22.807L5.074,22.807C2.285,22.807 -0.206,22.601 -2.397,22.193C-4.592,21.785 -6.461,21.032 -8.002,19.934C-9.545,18.838 -10.717,17.351 -11.516,15.473C-12.314,13.596 -12.715,11.171 -12.715,8.197L-12.715,-3.848Z" style="fill:rgb(77,85,90);fill-rule:nonzero;"/>
                </g>
                <g transform="matrix(4.166667,0,0,4.166667,13251.119578,4860.201459)">
                    <path d="M0,-41.229L19.591,-41.229L43.336,-11.276L43.449,-11.276L43.449,-41.229L56.092,-41.229L56.092,0L36.502,0L12.757,-29.954L12.644,-29.954L12.644,0L0,0L0,-41.229Z" style="fill:rgb(77,85,90);fill-rule:nonzero;"/>
                </g>
                <g transform="matrix(4.166667,0,0,4.165865,12009.021245,4775.301413)">
                    <path d="M0,-0.114L-18.962,-20.857L-2.471,-20.857L10.457,-6.32L23.385,-20.857L39.876,-20.857L20.915,-0.114L39.876,20.743L23.378,20.743L10.457,5.63L-2.406,20.743L-18.873,20.743L0,-0.114Z" style="fill:rgb(77,85,90);fill-rule:nonzero;"/>
                </g>
                <g transform="matrix(4.166667,0,0,4.166667,10778.301245,3303.038126)">
                    <g transform="matrix(1,0,0,1,211.2324,355.4536)">
                        <path d="M0,23.103C4.711,16.554 7.593,8.608 7.901,0L-8.197,0L-13.927,5.861L-75.867,5.861C-75.157,9.877 -73.883,13.7 -72.123,17.24L-23.563,17.24L-29.296,23.103L0,23.103Z" style="fill:rgb(77,85,90);fill-rule:nonzero;"/>
                    </g>
                    <g transform="matrix(103.067787,0,0,-103.067787,195.813965,426.326875)">
                        <path d="M-0.164,0.434L-0.219,0.377L-0.432,0.377C-0.363,0.324 -0.277,0.293 -0.183,0.293C-0.06,0.293 0.051,0.347 0.126,0.434L-0.164,0.434Z" style="fill:url(#_Radial1);fill-rule:nonzero;"/>
                    </g>
                </g>
                <g transform="matrix(4.166667,0,0,-4.166667,10778.301245,6252.736459)">
                    <g transform="matrix(1,0,0,1,211.2324,355.4536)">
                        <path d="M0,23.103C4.711,16.554 7.593,8.608 7.901,0L-8.197,0L-13.927,5.861L-75.867,5.861C-75.157,9.877 -73.883,13.7 -72.123,17.24L-23.563,17.24L-29.296,23.103L0,23.103Z" style="fill:rgb(77,85,90);fill-rule:nonzero;"/>
                    </g>
                    <g transform="matrix(103.067787,0,0,-103.067787,195.813965,426.326875)">
                        <path d="M-0.164,0.434L-0.219,0.377L-0.432,0.377C-0.363,0.324 -0.277,0.293 -0.183,0.293C-0.06,0.293 0.051,0.347 0.126,0.434L-0.164,0.434Z" style="fill:url(#_Radial2);fill-rule:nonzero;"/>
                    </g>
                </g>
            </g>
        </g>
    </g>
    <defs>
        <radialGradient id="_Radial1" cx="0" cy="0" r="1" gradientUnits="userSpaceOnUse" gradientTransform="matrix(1,0,0,-1,0,0.726452)"><stop offset="0" style="stop-color:rgb(251,176,64);stop-opacity:1"/><stop offset="1" style="stop-color:rgb(241,90,41);stop-opacity:1"/></radialGradient>
        <radialGradient id="_Radial2" cx="0" cy="0" r="1" gradientUnits="userSpaceOnUse" gradientTransform="matrix(1,0,0,-1,0,0.726452)"><stop offset="0" style="stop-color:rgb(251,176,64);stop-opacity:1"/><stop offset="1" style="stop-color:rgb(241,90,41);stop-opacity:1"/></radialGradient>
    </defs>
</svg>
